HIERARCHY
ROOT ui
{
	 OFFSET 0 0 0
	 CHANNELS 3 XPosition YPosition Z Position
	 EndSite
	 {
	 OFFSET 0 -1 0
	 }
}
ROOT li
{
	 OFFSET 0 0 0
	 CHANNELS 3 XPosition YPosition Z Position
	 EndSite
	 {
	 OFFSET 0 -1 0
	 }
}
ROOT ul
{
	 OFFSET 0 0 0
	 CHANNELS 3 XPosition YPosition Z Position
	 EndSite
	 {
	 OFFSET 0 -1 0
	 }
}
ROOT ll
{
	 OFFSET 0 0 0
	 CHANNELS 3 XPosition YPosition Z Position
	 EndSite
	 {
	 OFFSET 0 -1 0
	 }
}
ROOT tt
{
	 OFFSET 0 0 0
	 CHANNELS 3 XPosition YPosition Z Position
	 EndSite
	 {
	 OFFSET 0 -1 0
	 }
}
ROOT tb
{
	 OFFSET 0 0 0
	 CHANNELS 3 XPosition YPosition Z Position
	 EndSite
	 {
	 OFFSET 0 -1 0
	 }
}
ROOT td
{
	 OFFSET 0 0 0
	 CHANNELS 3 XPosition YPosition Z Position
	 EndSite
	 {
	 OFFSET 0 -1 0
	 }
}
ROOT v
{
	 OFFSET 0 0 0
	 CHANNELS 3 XPosition YPosition Z Position
	 EndSite
	 {
	 OFFSET 0 -1 0
	 }
}
ROOT bn
{
	 OFFSET 0 0 0
	 CHANNELS 3 XPosition YPosition Z Position
	 EndSite
	 {
	 OFFSET 0 -1 0
	 }
}
MOTION
Frames: 16
Frame Time: 0.002
0.0019687639474868773	-1.341709941625595E-4	0		0.4619078369140625	-2.39103271484375	0		-1.1621126708984375	0.060366695404052734	0		-0.7624869384765625	-2.509448974609375	0		1.3673123779296874	-0.752468505859375	0		3.087092041015625	-0.07610276794433593	0		4.57273486328125	0.10750149536132812	0		5.61327978515625	0.0938628158569336	0		-0.17441416931152343	5.93913427734375	0		
-0.0029321599006652834	0.004592089176177978	0		0.4266509094238281	-2.354727294921875	0		-1.16801513671875	0.06507863616943359	0		-0.760373779296875	-2.507872802734375	0		1.370394287109375	-0.7498509521484376	0		3.11222509765625	-0.0698430404663086	0		4.57273779296875	0.10726505279541015	0		5.617435546875	0.07601046752929687	0		-0.17459365844726563	5.9377646484375	0		
-0.002922430992126465	0.0042326440811157225	0		0.4496002197265625	-2.362495849609375	0		-1.0920201416015625	0.06328487777709961	0		-0.7602869873046875	-2.50825537109375	0		1.3673724365234374	-0.7531126098632812	0		3.10210986328125	-0.07692178344726562	0		4.56552490234375	0.09517671966552735	0		5.6174853515625	0.08086986541748047	0		-0.17474740600585936	5.9383994140625	0		
-0.005968422889709473	9.392099976539612E-4	0		0.4206920471191406	-2.362297119140625	0		-1.1680006103515626	0.0642958755493164	0		-0.7601952514648438	-2.50862939453125	0		1.48125830078125	-0.76250927734375	0		3.089068359375	-0.07992877197265626	0		4.5655302734375	0.09497884368896484	0		5.610326171875	0.07571000671386718	0		-0.1901163330078125	5.928322265625	0		
-0.005964867115020752	6.043450236320496E-4	0		0.4772930908203125	-2.389657470703125	0		-1.085123291015625	0.056399105072021484	0		-0.75806640625	-2.507028076171875	0		1.379177734375	-0.767920166015625	0		3.0920009765625	-0.08420828247070312	0		4.5676220703125	0.09976847839355468	0		5.6144814453125	0.05798057174682617	0		-0.17319735717773438	5.93466796875	0		
0.001139251947402954	0.00615802001953125	0		0.43742196655273435	-2.38722509765625	0		-1.1570263671875	0.06235769271850586	0		-0.7749369506835937	-2.50506298828125	0		1.38227490234375	-0.7642407836914062	0		3.12043408203125	-0.06092508316040039	0		4.57072314453125	0.10556771087646484	0		5.61329296875	0.08898889923095703	0		-0.1734254913330078	5.93434423828125	0		
0.006050547122955322	0.0017707990407943726	0		0.4815498046875	-2.38530810546875	0		-1.0920360107421876	0.06182815170288086	0		-0.750746337890625	-2.49982958984375	0		1.370530029296875	-0.7512655029296875	0		3.09802392578125	-0.08269224548339844	0		4.57272216796875	0.10641627502441406	0		5.61331396484375	0.09231371307373047	0		-0.17562113952636718	5.93707666015625	0		
-0.0029566071033477782	0.002660495042800903	0		0.42510546875	-2.3585283203125	0		-1.0920654296875	0.06150831985473633	0		-0.7506689453125	-2.50013525390625	0		1.49309521484375	-0.7767192993164063	0		3.09312890625	-0.07574755096435547	0		4.55447509765625	0.09466236877441406	0		5.61031787109375	0.07506455993652343	0		-0.17589533996582032	5.936794921875	0		
-0.006052038192749023	-5.353890061378479E-4	0		0.44803515625	-2.366177490234375	0		-1.10025341796875	0.05335703277587891	0		-0.7855418701171875	-2.496782958984375	0		1.3613455810546875	-0.761509033203125	0		3.097962890625	-0.08295428466796875	0		4.5544296875	0.0946085205078125	0		5.6073515625	0.06305949020385743	0		-0.1761933135986328	5.93653662109375	0		
-0.003055943012237549	0.002183034896850586	0		0.43359521484375	-2.3931259765625	0		-1.092169921875	0.0609354362487793	0		-0.7257706298828125	-2.51312939453125	0		1.498936279296875	-0.78417333984375	0		3.0881640625	-0.0688642578125	0		4.56745654296875	0.09934773254394531	0		5.610259765625	0.07507195281982422	0		-0.17653273010253906	5.935302734375	0		
-0.0031314940452575684	0.0019812599420547484	0		0.45276901245117185	-2.38565283203125	0		-1.1623270263671874	0.05695122528076172	0		-0.8024130249023438	-2.49497412109375	0		1.318287353515625	-0.761037841796875	0		3.0978369140625	-0.08310544586181641	0		4.57660986328125	0.1121867904663086	0		5.6102119140625	0.07515095520019531	0		-0.1768752899169922	5.9350927734375	0		
8.285750150680542E-4	0.004731690883636475	0		0.4527830505371094	-2.385809326171875	0		-1.0923441162109375	0.06045871353149414	0		-0.7304598999023437	-2.499485107421875	0		1.50496337890625	-0.7775261840820312	0		3.0969638671875	-0.07112677764892578	0		4.56727880859375	0.09938035583496094	0		5.60601513671875	0.09448696136474609	0		-0.17721759033203124	5.935908203125	0		
0.001573390007019043	-0.003437419891357422	0		0.45015597534179685	-2.36489111328125	0		-1.0924576416015626	0.060257972717285155	0		-0.8013587646484375	-2.493393310546875	0		1.3700706787109376	-0.7661845092773437	0		3.09764013671875	-0.08315836334228516	0		4.57228857421875	0.10633872222900391	0		5.619478515625	0.0923218994140625	0		-0.17759088134765624	5.935748046875	0		
-0.006517248153686523	-0.0014230509996414184	0		0.42113323974609373	-2.36448046875	0		-1.10073046875	0.05222743225097656	0		-0.7284463500976562	-2.4978662109375	0		1.4927939453125	-0.777461669921875	0		3.0877685546875	-0.06897837829589844	0		4.56215771484375	0.10658367156982422	0		5.61712548828125	0.07529989624023438	0		-0.17797125244140624	5.935611328125	0		
-0.0036082520484924316	0.0014161549806594848	0		0.4584681396484375	-2.3992451171875	0		-1.16872265625	0.06129387664794922	0		-0.7756447143554688	-2.506158203125	0		1.311817138671875	-0.7682676391601563	0		3.0991416015625	-0.09617219543457031	0		4.5668828125	0.09957080078125	0		5.609896484375	0.07580548858642579	0		-0.30976104736328125	5.91384814453125	0		
0.005213153839111328	1.710290014743805E-4	0		0.4645205078125	-2.392421142578125	0		-1.086004638671875	0.05368438720703125	0		-0.6976714477539062	-2.50466552734375	0		1.3817462158203124	-0.765555908203125	0		3.09952197265625	-0.06614833068847656	0		4.57393359375	0.11152591705322265	0		5.619861328125	0.08768125915527344	0		-0.17678169250488282	5.93237158203125	0		
